<?xml version="1.0" standalone="no"?><!DOCTYPE svg PUBLIC "-//W3C//DTD SVG 1.1//EN" "http://www.w3.org/Graphics/SVG/1.1/DTD/svg11.dtd"><svg t="1645498728887" class="icon" viewBox="0 0 1024 1024" version="1.1" xmlns="http://www.w3.org/2000/svg" p-id="6035" xmlns:xlink="http://www.w3.org/1999/xlink" width="200" height="200"><defs><style type="text/css"></style></defs><path d="M755 342c-44.11 0-80-35.89-80-80s35.89-80 80-80 80 35.89 80 80-35.89 80-80 80z m0-96c-8.82 0-16 7.18-16 16s7.18 16 16 16 16-7.18 16-16-7.18-16-16-16z" p-id="6036"></path><path d="M802.17 460a31.98 31.98 0 0 1-17.51-5.22 31.976 31.976 0 0 1-14.19-22.43c-1.05-7.67-7.7-13.45-15.46-13.45s-14.41 5.78-15.46 13.45a31.994 31.994 0 0 1-40.43 26.43c-32.34-9.17-62.26-26.46-86.52-50.01a31.99 31.99 0 0 1 2.64-48.22c6.1-4.74 7.78-13.39 3.9-20.1-3.88-6.72-12.2-9.59-19.37-6.67a32.015 32.015 0 0 1-43.12-21.84c-4.09-16.27-6.16-33.08-6.16-49.94s2.07-33.66 6.16-49.94a32.015 32.015 0 0 1 43.12-21.84c7.16 2.92 15.49 0.05 19.37-6.67 3.88-6.72 2.2-15.36-3.9-20.1a32.024 32.024 0 0 1-12.31-23.51 31.97 31.97 0 0 1 9.67-24.71c24.26-23.54 54.18-40.83 86.52-50.01a31.983 31.983 0 0 1 26.24 4 31.976 31.976 0 0 1 14.19 22.43c1.05 7.67 7.7 13.45 15.46 13.45s14.41-5.78 15.46-13.45a31.994 31.994 0 0 1 40.43-26.43c32.34 9.17 62.26 26.46 86.52 50.01a31.99 31.99 0 0 1-2.64 48.22c-6.1 4.74-7.77 13.39-3.9 20.11 3.88 6.72 12.21 9.59 19.37 6.67a32.015 32.015 0 0 1 43.12 21.84c4.09 16.27 6.16 33.08 6.16 49.94s-2.07 33.66-6.16 49.94a32.015 32.015 0 0 1-43.12 21.84c-7.16-2.92-15.49-0.05-19.37 6.67-3.88 6.72-2.2 15.36 3.9 20.1a32.024 32.024 0 0 1 12.31 23.51 31.97 31.97 0 0 1-9.67 24.71c-24.26 23.54-54.18 40.83-86.52 50.01-2.87 0.81-5.81 1.21-8.73 1.21zM755 354.9c25.85 0 49.28 12.6 63.92 32.26 4.29-2.2 8.46-4.61 12.51-7.24-9.69-22.51-8.89-49.1 4.02-71.47 12.92-22.38 35.55-36.37 59.89-39.23a144.76 144.76 0 0 0 0-14.46c-24.34-2.86-46.96-16.84-59.89-39.23-12.92-22.37-13.72-48.96-4.02-71.47-4.04-2.63-8.22-5.05-12.51-7.24-14.64 19.66-38.07 32.26-63.92 32.26s-49.28-12.6-63.92-32.26c-4.29 2.2-8.46 4.61-12.51 7.24 9.7 22.51 8.89 49.1-4.03 71.47-12.92 22.38-35.55 36.37-59.89 39.23a144.76 144.76 0 0 0 0 14.46c24.34 2.86 46.96 16.84 59.89 39.23 12.92 22.37 13.72 48.96 4.03 71.47 4.04 2.63 8.22 5.05 12.51 7.24 14.64-19.65 38.07-32.26 63.92-32.26z" p-id="6037"></path><path d="M312.25 280.5m-60 0a60 60 0 1 0 120 0 60 60 0 1 0-120 0Z" p-id="6038"></path><path d="M534.98 338.42c-4.73 1.08-10.29 2.08-15.73 2.08-33.14 0-60-26.86-60-60s26.86-60 60-60c5.24 0 11 0 15.17 1.93 0.17 0.08 0.84 115.92 0.56 115.99z" p-id="6039"></path><path d="M192.25 794.5a31.999 31.999 0 0 1-31.6-37.08l21.32-132.49c-33.58-27.23-61.52-60.41-81.48-96.9-24.39-44.59-36.75-92.63-36.75-142.78 0-43.72 9.49-86.11 28.22-125.99 17.96-38.27 43.61-72.57 76.23-101.96 66.42-59.84 154.51-92.8 248.05-92.8 51.03 0 100.26 9.7 146.32 28.84 0.31 0.13 0.61 0.26 0.92 0.4l15.71 7.11c16.1 7.29 23.25 26.25 15.96 42.35-7.29 16.1-26.25 23.24-42.35 15.96l-15.24-6.9c-38.11-15.76-78.93-23.76-121.31-23.76-159.08 0-288.5 115.18-288.5 256.75 0 77.97 39.21 150.84 107.58 199.93 10.69 7.68 15.33 20.84 12.54 33.1l-12.42 77.21L321 638.8a31.979 31.979 0 0 1 24.67-4.55c5.4 1.21 10.85 2.28 16.33 3.21a251.29 251.29 0 0 1-1.29-25.45c0-51.76 15.93-102.15 46.06-145.72 28.94-41.84 69.77-75.8 118.09-98.19 16.03-7.43 35.06-0.46 42.49 15.58s0.46 35.06-15.58 42.49c-78.38 36.3-127.07 107.51-127.07 185.82 0 17.84 2.54 35.58 7.56 52.72a32 32 0 0 1-5.5 28.69 32.032 32.032 0 0 1-26.52 12.26c-18.46-0.75-36.89-2.83-54.97-6.2l-135.35 89.7a31.865 31.865 0 0 1-17.67 5.34z" fill="#040000" p-id="6040"></path><path d="M848.09 959.5c-6.16 0-12.32-1.78-17.68-5.33l-111.44-73.85a330.277 330.277 0 0 1-58.22 5.16c-79.52 0-154.44-28.04-210.96-78.96-27.8-25.05-49.67-54.3-64.99-86.94-15.99-34.06-24.1-70.26-24.1-107.6 0-51.76 15.93-102.15 46.06-145.72 28.94-41.84 69.77-75.8 118.08-98.19 0.93-0.43 1.88-0.82 2.84-1.16 1.42-0.5 14.17-4.93 26.04-7.3 17.33-3.46 34.19 7.77 37.65 25.1 3.47 17.33-7.77 34.19-25.1 37.65-5.47 1.09-12.54 3.3-15.99 4.45-77.5 36.55-125.58 107.36-125.58 185.18 0 115.51 105.89 209.49 236.05 209.49 19.55 0 39.03-2.14 57.89-6.37 8.5-1.91 17.41-0.26 24.67 4.55l61.58 40.81-8.53-53.02c-2.53-12.09 2.12-24.96 12.65-32.52 55.79-40.06 87.79-99.45 87.79-162.95 0-39.39-12.4-77.76-35.86-110.99l-7.3-9.5c-10.77-14.01-8.15-34.1 5.86-44.87s34.1-8.15 44.87 5.86l7.69 10c0.25 0.32 0.49 0.64 0.72 0.97 31.42 44.23 48.02 95.59 48.02 148.53 0 42.83-10.56 83.85-31.38 121.93-16.55 30.25-39.53 57.83-67.09 80.67l17.35 107.83a31.993 31.993 0 0 1-14.26 31.98 31.868 31.868 0 0 1-17.33 5.11z" fill="#040000" p-id="6041"></path><path d="M747.73 548.39m-50.18 0a50.18 50.18 0 1 0 100.36 0 50.18 50.18 0 1 0-100.36 0Z" p-id="6042"></path><path d="M574.61 548.39m-50.18 0a50.18 50.18 0 1 0 100.36 0 50.18 50.18 0 1 0-100.36 0Z" p-id="6043"></path></svg>